<svg version="1.1" xmlns="http://www.w3.org/2000/svg" style="display: block;" viewBox="0 0 2048 2048" width="520" height="520" preserveAspectRatio="none">
<path transform="translate(0,0)" fill="rgb(32,197,94)" d="M 1511.99 221.452 C 1545.14 221.575 1579.49 221.376 1612.46 225.91 C 1653.79 231.593 1695.22 239.138 1735.2 251.485 C 1758.72 258.748 1790.91 266.714 1808.09 285.389 C 1824.56 304.447 1812.25 347.291 1809.53 369.994 C 1807.77 384.678 1805.68 399.421 1802.84 413.572 C 1783.06 510.286 1742.93 601.687 1685.13 681.708 C 1549.71 869.491 1325.41 957.956 1098.62 906.811 C 1056.87 897.394 1055.34 898.446 1074.44 938.98 C 1121.04 1037.87 1193.73 1122.04 1250.81 1214.54 C 1273.07 1250.22 1292.31 1287.7 1308.32 1326.59 C 1347.31 1418.93 1347.91 1523 1309.99 1615.78 C 1280.17 1688.99 1211.52 1755.46 1139.48 1787.08 C 967.37 1862.61 762.465 1780.05 691.759 1605.42 C 651.443 1505.85 662.359 1411.56 704.071 1314.21 C 749.49 1207.27 837.151 1115.69 897.31 1017.01 C 903.153 1007.43 912.013 994.88 918.063 982.949 C 927.555 964.228 946.921 928.117 945.405 907.048 C 944.539 904.196 935.803 906.726 934.245 907.071 C 901.235 914.388 870.302 919.96 836.601 923.655 C 742.443 933.267 647.429 917.451 561.462 877.855 C 418.111 811.079 324.051 693.157 268.987 545.968 C 265.794 534.041 258.063 519.119 255.788 507.435 C 249.98 477.614 224.615 397.906 237.116 371.63 C 248.496 347.71 312.388 326.224 337.598 318.52 C 620.498 232.07 903.818 393.768 986.533 674.798 C 989.616 685.271 991.267 695.51 994.681 706.196 C 1029.73 431.669 1232.28 232.474 1511.99 221.452 z M 1000.96 1745.91 C 1155.14 1746.02 1269.25 1627.22 1268.81 1475.91 C 1268.36 1318.86 1149.15 1192 1070.34 1065.83 C 1050.74 1034.46 1022.76 988.029 1007.97 951.825 C 1007.47 951.366 1006.97 950.907 1006.47 950.448 C 988.305 990.319 971.459 1024.49 947.465 1061.69 C 851.482 1210.47 682.891 1377.38 752.902 1570.98 C 792.088 1679.34 888.307 1740.96 1000.96 1745.91 z M 1047 740.956 C 1062.91 722.485 1077.13 702.58 1093.34 684.289 C 1173.27 594.073 1268.39 517.818 1383.38 477.798 C 1420.94 464.724 1459.81 452.214 1499.72 448.688 C 1512.57 447.554 1550.59 447.795 1534.85 470.55 C 1528.72 478.976 1500.42 488.776 1488.89 493.641 C 1467.52 502.584 1446.41 512.118 1425.57 522.234 C 1397.82 535.863 1370.8 550.906 1344.6 567.305 C 1257.11 623.503 1180.13 694.564 1117.12 777.278 C 1102.9 795.685 1087.77 814.733 1076.85 835.208 C 1103.51 840.408 1129.21 847.088 1156.3 850.196 C 1184.87 853.472 1213.44 853.87 1242.12 852.781 C 1342.04 848.989 1426.96 820.114 1509.83 764.193 C 1522.15 755.885 1533.61 745.683 1545.04 736.204 C 1654.23 645.717 1719.65 514.944 1745.58 376.94 C 1747.51 366.656 1754.18 340.527 1748.13 331.942 C 1735.23 313.653 1593.52 293.684 1566.18 291.503 C 1551.79 290.355 1537.06 290.664 1522.62 290.478 C 1302.26 294.223 1134.79 432.209 1070.78 637.954 C 1060.19 672.01 1053.34 706.024 1047 740.956 z M 292.999 406.069 C 295.24 425.994 300.01 440.739 305.101 459.952 C 335.093 573.503 395.536 684.574 488.542 758.424 C 560.498 815.56 656.499 854.128 748.413 859.425 C 794.355 862.072 877.342 857.538 921.08 842.016 C 913.119 827.91 897.585 808.918 887.076 796.347 C 822.646 719.277 741.336 644.95 655.314 592.921 C 625.04 574.65 593.95 557.768 562.14 542.327 C 542.594 532.829 522.481 524.854 503.377 514.549 C 484.062 504.131 491.201 492.68 510.001 492.428 C 542.858 491.989 578.706 501.776 609.49 512.141 C 736.481 554.9 848.427 641.188 936.105 741.177 C 940.122 745.758 944.587 751.797 948.887 755.901 C 933.709 704.492 909.217 639.774 882.999 593.542 C 842.631 522.358 776.442 452.1 704.04 412.709 C 635.748 375.582 558.722 357.521 481.045 360.421 C 464.976 361.174 433.636 363.59 418.162 365.747 C 390.678 369.577 312.7 387.574 292.999 406.069 z"/>
<path transform="translate(0,0)" fill="rgb(32,197,94)" d="M 1143.29 1310.99 C 1148.79 1311.44 1153.5 1313.06 1157.18 1317.26 C 1186.84 1353.63 1198.7 1415.73 1199.14 1460.81 C 1200.14 1561.37 1128.75 1665.59 1019.91 1664.25 C 1002.98 1664.31 984.75 1657.37 973.681 1644.34 C 964.333 1633.33 968.14 1622.24 979.508 1614.89 C 986.336 1610.48 997.277 1610.11 1004.92 1607.48 C 1097 1575.25 1147.84 1480.21 1138.76 1385.4 C 1136.93 1366.27 1131.95 1345.27 1133.04 1326.1 C 1133.37 1320.35 1138.9 1314.42 1143.29 1310.99 z"/>
</svg>